<?xml version="1.0" encoding="UTF-8"?> <svg xmlns="http://www.w3.org/2000/svg" xmlns:xlink="http://www.w3.org/1999/xlink" version="1.1" id="Layer_1" x="0px" y="0px" viewBox="0 0 1920 1080" style="enable-background:new 0 0 1920 1080;" xml:space="preserve"> <style type="text/css"> .st0{fill:#E73A2B;} .st1{fill:#E21706;} </style> <g> <g> <path class="st0" d="M621.8,577.4c57.8-0.2,115.6-0.4,173.4-0.6c5.3,0,10.6,0,15.8,0c5.2-44.6,2.7-62.9-30.3-74.9 c-5-1-10-2.9-15.1-2.9c-81.1-0.2-162.2-0.2-243.3-0.2c0-13.8,0.3-27.6-0.2-41.4c-0.3-7.7-1.8-15.4-2.8-23c1.2-1.6,2.5-4.6,3.7-4.6 c88.7,0.3,177.5-1.4,266.1,2.1c53.4,2.1,94.6,48.4,95.5,102.1c1.5,85.1,0.5,170.3,0.7,255.5c0,5.8-0.8,9-7.4,6.1 c-4.1-1-8.3-2.9-12.4-2.9c-78.8-0.2-157.6-0.2-236.5,0c-4.2,0-8.3,1.7-12.5,2.6c-44.9-2.3-84.6-37.4-95.5-84.5 c-15-64.8,32.6-129.1,98.4-133C620.2,577.6,621,577.5,621.8,577.4z M813.2,652.4c-2.3-0.9-4.7-2.5-7-2.5 c-60.3-0.1-120.7-0.7-181,0.7c-9,0.2-20.2,7.7-26.2,15.2c-16.6,20.6-7,44.7,21.7,58.3c4.5,1.3,9,3.6,13.5,3.6 c54.8,0.3,109.7,0.2,164.5,0c4.1,0,8.1-2.1,12.2-3.3c0.7-0.6,1.3-1.3,2-1.9c0.1-0.9,0.2-1.8,0.3-2.7c0-21.6,0-43.2,0-64.7 c0.4-0.2,1.1-0.6,1-0.7C814,653.7,813.6,653.1,813.2,652.4z"></path> <path class="st0" d="M175.1,502c-0.2,43.4-0.5,86.9-0.6,130.3c-0.1,50.6,0,101.3-0.1,151.9c0,3.7-1.2,7.4-1.9,11.1 c-4.1-1-8.3-2.7-12.4-2.8c-19.2-0.3-38.4-0.1-57.6-0.1c-0.2-4.9-0.5-9.8-0.5-14.7c0-158.9,0-317.8,0-476.7c0-4.9,0.3-9.8,0.5-14.7 c11.1,0,22.2,0.4,33.3,0c12.2-0.4,24.3-1.6,36.5-2.4c0.7,4,2.1,8,2.1,12c0.1,43.9,0.1,87.8,0.1,133.9c5.2,0,9.9,0,14.6,0 c54.7,0,109.3-0.1,164,0c68.9,0.1,115.8,46.8,115.7,115.5c-0.1,82.4-0.3,164.8-0.5,247.3c-24,0-48.1,0-72.1,0 c-0.1-81.2-0.9-162.4-0.1-243.6c0.2-23.4-8.5-38.5-29.9-46.7c-4.1-1.1-8.1-3.1-12.2-3.1c-55.5-0.2-111-0.2-166.5,0 C183.3,499.1,179.2,501,175.1,502z"></path> <path class="st0" d="M1548.1,501.9c-0.7,0.8-1.4,1.6-2.2,2.5c-1.1,3.2-3.1,6.4-3.1,9.5c-0.2,56-0.2,112.1,0,168.1 c0,3.5,2.3,7,3.6,10.5c4.9,16,15.5,26.6,31.3,32c4.1,1.1,8.2,3,12.3,3c70.7,0.2,141.4,0.2,212.2,0c4.2,0,8.3-1.7,12.5-2.7 c0.8,9.3,2.2,18.5,2.1,27.8c-0.1,14.2-1.2,28.5-1.9,42.7c-4.6-1-9.1-2.9-13.7-2.9c-73.8-0.2-147.6-0.2-221.4,0 c-4.2,0-8.5,1.4-12.7,2.2c-48-6.2-85.9-45.3-91.2-94c0.7-3.8,2.1-7.6,2.1-11.4c0.1-97.9,0.1-195.7,0-293.6c0-4.2-1.7-8.3-2.6-12.5 c9.4-0.8,18.8-2,28.2-2.2c13.9-0.4,27.8-0.1,42.9-0.1c0,15.8,0,31.3,0,48.4c90.6,0,180,0,271.6,0c-1.2,25.3-2.3,48.9-3.4,72.5 c-4.2-0.9-8.3-2.6-12.5-2.6c-80.6-0.2-161.1-0.2-241.7,0C1556.4,499.1,1552.2,500.9,1548.1,501.9z"></path> <path class="st0" d="M1007,711.6c4.9-0.2,10.2,0.6,14.8-0.8c116-35.8,198.4-140.3,206.5-261.5c0.4-6.2,1-12.4,1.5-19.1 c24,0,47.5,0,70.9,0c4.8,196.4-164.3,370.1-365.4,365.3c0-121.3,0-242.6,0-365c23.5,0,47.1,0,71.7,0c0,1.7,0,4.1,0,6.5 c-0.9,4.2-2.6,8.3-2.7,12.5c-0.2,83.2-0.2,166.4,0,249.6C1004.3,703.3,1006,707.4,1007,711.6z"></path> <path class="st0" d="M1351.9,792.5c-0.2-72.7-0.3-145.3-0.4-218c-0.1-51.1,0-102.3,0-153.4c-47.9-33.9-43.5-88.2-14.9-117.2 c27.4-27.8,81.4-26.8,107.2,4c25.4,30.4,24.5,85.2-19.2,112.4c0,4.4,0,9.3,0,14.2c0,114.4,0,228.8,0,343.2c0,4.9-0.3,9.8-0.5,14.8 C1400,792.4,1376,792.4,1351.9,792.5z M1385.4,396.5c33.8-14.9,43-26.2,39.1-47.5c-2.9-15.7-17.5-28.9-33.4-30.1 c-16.5-1.3-32.9,9.6-38.4,25.6C1346,363.9,1353.2,375.6,1385.4,396.5z"></path> <path class="st1" d="M1475.4,383.1c0.9,4.2,2.6,8.3,2.6,12.5c0.2,97.9,0.1,195.7,0,293.6c0,3.8-1.4,7.6-2.1,11.4 c-0.3-1.8-0.7-3.5-0.7-5.3C1475.2,591.3,1475.3,487.2,1475.4,383.1z"></path> <path class="st1" d="M1007,711.6c-0.9-4.2-2.6-8.3-2.6-12.5c-0.2-83.2-0.2-166.4,0-249.6c0-4.2,1.7-8.3,2.7-12.5 C1007,528.5,1007,620.1,1007,711.6z"></path> <path class="st1" d="M1548.1,501.9c4.1-1,8.2-2.9,12.3-2.9c80.6-0.2,161.1-0.2,241.7,0c4.2,0,8.3,1.7,12.5,2.6 C1725.8,501.8,1637,501.9,1548.1,501.9z"></path> <path class="st1" d="M616.6,795.2c4.2-0.9,8.3-2.6,12.5-2.6c78.8-0.2,157.6-0.2,236.5,0c4.1,0,8.3,1.9,12.4,2.9 C790.8,795.4,703.7,795.3,616.6,795.2z"></path> <path class="st1" d="M522.4,498.8c81.1,0,162.2,0,243.3,0.2c5,0,10,1.9,15.1,2.9c-86.1,0-172.3,0-258.4-0.1 c-0.1-0.9-0.1-1.9-0.2-2.8L522.4,498.8z"></path> <path class="st1" d="M1567.1,794.7c4.2-0.8,8.5-2.2,12.7-2.2c73.8-0.1,147.6-0.2,221.4,0c4.6,0,9.1,1.9,13.7,2.9 C1732.2,795.2,1649.7,795,1567.1,794.7z"></path> <path class="st1" d="M1814.6,725c-4.2,0.9-8.3,2.7-12.5,2.7c-70.7,0.2-141.4,0.2-212.2,0c-4.1,0-8.2-2-12.3-3 C1656.7,724.7,1735.7,724.9,1814.6,725z"></path> <path class="st1" d="M175.1,502c4.1-1,8.2-2.9,12.3-2.9c55.5-0.2,111-0.2,166.5,0c4.1,0,8.1,2,12.2,3.1 C302.4,502.1,238.7,502,175.1,502z"></path> <path class="st1" d="M1546.5,692.6c-1.2-3.5-3.6-7-3.6-10.5c-0.2-56-0.2-112.1,0-168.1c0-3.2,2-6.4,3.1-9.5 C1546.1,567.1,1546.3,629.9,1546.5,692.6z"></path> <path class="st1" d="M396.1,792.5c24,0,48.1,0,72.1,0c-1.3,1.3-2.5,3.6-3.8,3.6c-21.4,0.2-42.9,0.3-64.3,0 C398.8,796.1,397.5,793.7,396.1,792.5z"></path> <path class="st1" d="M1351.9,792.5c24.1,0,48.1,0,72.1,0c-1.2,1.3-2.4,3.6-3.7,3.6c-21.4,0.2-42.9,0.3-64.3,0 C1354.6,796.1,1353.3,793.7,1351.9,792.5z"></path> <path class="st1" d="M172.2,283.8c-12.2,0.8-24.3,1.9-36.5,2.4c-11.1,0.4-22.2,0.1-33.3,0c2.5-1,5-2.8,7.5-2.8 C130.7,283.4,151.5,283.6,172.2,283.8z"></path> <path class="st1" d="M102.4,792.4c19.2,0,38.4-0.2,57.6,0.1c4.1,0.1,8.3,1.8,12.4,2.8c-21.9,0.3-43.8,0.6-65.8,0.6 C105.2,795.9,103.8,793.6,102.4,792.4z"></path> <path class="st1" d="M519.4,434.4c1,7.7,2.5,15.3,2.8,23c0.5,13.8,0.2,27.6,0.2,41.4l-0.2,0.2c-1-0.1-1.9-0.1-2.9-0.2 C519.3,477.4,519.3,455.9,519.4,434.4z"></path> <path class="st0" d="M519.3,498.9c1,0.1,1.9,0.1,2.9,0.2c0.1,0.9,0.1,1.9,0.2,2.8C521.3,500.8,520.3,499.9,519.3,498.9z"></path> <path class="st1" d="M621.8,577.4c-0.8,0.1-1.6,0.2-2.4,0.2C620.2,577.1,621,577.1,621.8,577.4z"></path> <path class="st1" d="M620.7,724c63.4,0.1,126.8,0.2,190.2,0.3c-4.1,1.1-8.1,3.3-12.2,3.3c-54.8,0.2-109.7,0.2-164.5,0 C629.7,727.6,625.2,725.3,620.7,724z"></path> <path class="st1" d="M813.3,655c-0.3-0.9-0.3-1.7,0-2.6c0.4,0.6,0.8,1.2,1.1,1.9C814.3,654.4,813.6,654.8,813.3,655z"></path> <path class="st1" d="M812.9,722.5c0.1-0.9,0.2-1.8,0.3-2.7C813.1,720.7,813,721.6,812.9,722.5z"></path> </g> </g> </svg> 