<?xml version="1.0" encoding="UTF-8"?> <svg xmlns="http://www.w3.org/2000/svg" xmlns:xlink="http://www.w3.org/1999/xlink" version="1.1" id="Layer_1" x="0px" y="0px" viewBox="0 0 1920 1080" style="enable-background:new 0 0 1920 1080;" xml:space="preserve"> <style type="text/css"> .st0{fill:#1D1D1D;} .st1{fill:#090A0A;} .st2{fill:#0C0C0C;} .st3{fill:#0D0D0D;} .st4{fill:#0B0B0B;} .st5{fill:#E22428;} .st6{fill:#1E1E1E;} .st7{fill:#1F2020;} .st8{fill:#1F1F1F;} .st9{fill:#222222;} .st10{fill:#242424;} .st11{fill:#1D1E1E;} .st12{fill:#202020;} .st13{fill:#212121;} .st14{fill:#212222;} .st15{fill:#232323;} .st16{fill:#252525;} .st17{fill:#1A1A1A;} .st18{fill:#242525;} .st19{fill:#1B1C1C;} .st20{fill:#161616;} </style> <g> <g> <path class="st0" d="M1882.4,791.2c-14.1,3.2-22.7-3.7-29.5-15.3c-4.6-7.8-10.1-15.8-23.3-13.5c0,4.6,0,9.4,0,14.1 c0,4.5,0,9.1,0,14.2c-5.4,0-10.1,0-15.4,0c0-23.1,0-46,0-70c17.3-0.2,34.6-2.2,51.7,2.5c5.8,1.6,11,10,11.2,16.7 c0.3,7.8-4.4,15.2-11.6,18.2c-1.6,0.7-3.4,0.8-6.4,1.5c8.3,9.2,15.8,17.7,23.4,26.1C1882.4,787.5,1882.4,789.4,1882.4,791.2z M1830,750.4c7.5,0,13.9,0.3,20.3-0.1c5.2-0.3,10.1-2.5,10.2-8.5c0.1-6.1-4.6-8.1-10.1-8.2c-6.6-0.1-13.2,0-20.4,0 C1830,739.8,1830,744.5,1830,750.4z"></path> <path class="st1" d="M907.2,442.6c45.2,0,89.8,0,135.5,0c9.8,36.3,19.7,72.7,29.6,109.2c0.7,0,1.4,0.1,2.2,0.1 c11-36.3,22-72.6,33.1-109.1c44.2,0,87.8,0,132.4,0c0,68.8,0,137.5,0,206.1c0.9,0.3,1.8,0.6,2.8,0.9 c36.8-68.8,72.5-138.2,108.2-207.1c39.6,0,78.4,0,117.6,0c33,67.8,66,135.6,99.9,205.3c29.7-34,58.6-66.9,87.9-100.4 c-28.3-34.9-56.2-69.3-85.3-105.3c4.6,0,7.2,0,9.8,0c30.4,0,60.9,0.1,91.3-0.1c5.1,0,8.4,1.4,11.6,5.4 c9.1,11.1,18.7,21.9,28.8,33.7c7.7-8.7,15.7-16.2,22-25.1c7.6-10.8,16.6-14.9,30-14.3c27,1.1,54.1,0.3,81.2,0.3 c2.7,0,5.4,0,10.2,0c-28.9,35.8-56.8,70.2-85.1,105.2c36.2,41.5,72.2,82.8,108.2,124.1c-0.3,0.7-0.5,1.3-0.8,2c-2.8,0-5.7,0-8.5,0 c-34.8,0-69.5-0.1-104.3,0.1c-5.1,0-8.4-1.3-11.6-5.5c-11.6-15-23.8-29.6-35.6-44.5c-1.5-1.9-2.4-4.3-4.2-7.5 c-10.3,13-18.7,23.4-27.1,33.9c-4.9,6.2-9.5,12.8-14.8,18.7c-2.2,2.3-6,4.5-9,4.5c-60,0.2-119.9,0-179.9,0.2 c-5.4,0-8.2-1.5-10.2-6.8c-6.1-15.7-12.8-31.2-19.6-47.3c-30.1,0-60.4,0-91.4,0c-7.2,15.7-14.6,31.5-21.8,47.3 c-2.1,4.7-4.8,6.9-10.4,6.9c-56.9-0.2-113.8-0.2-170.7-0.2c-2.1,0-4.2-0.3-6.9-0.6c0-36.2,0-72.1,0-110.1c-2,2.7-3.1,3.6-3.5,4.7 c-11.5,33.2-22.9,66.4-34.2,99.7c-1.2,3.5-1.9,6.4-6.3,6.4c-25.8,0-51.6,0-77.7,0c-12.3-36.5-24.4-72.4-36.4-108.4 c-0.8,0.1-1.6,0.3-2.4,0.4c0,35.7,0,71.3,0,107.5c-28.7,0-56.2,0-84.4,0C907.2,596.4,907.2,519.9,907.2,442.6z M1432.5,556.4 c-7.3-17.1-14.4-33.5-21.4-50c-0.7,0-1.5,0.1-2.2,0.1c-8.5,16.2-17.1,32.4-26.3,49.9C1399.7,556.4,1415.1,556.4,1432.5,556.4z"></path> <path class="st2" d="M368.4,673.2c0-77.5,0-153.7,0-230.8c3.5,0,6.5,0,9.5,0c85.8,0,171.6,0.4,257.4-0.3 c24-0.2,52.9,19.1,60.1,45.8c1,3.5,0.9,7.3,0.9,11c0,41.2-0.4,82.4,0.1,123.6c0.3,19.6-9.4,32.4-25.3,41.5 c-11.3,6.5-24,9.5-36.9,9.5c-85.8,0.2-171.6,0.2-257.4,0.2C374.2,673.7,371.5,673.4,368.4,673.2z M474.1,635.7 c2.4,0.3,4.7,0.8,7,0.8c32.6,0,65.1-0.2,97.7,0c9.7,0.1,16.2-4.5,18.9-13c2.8-8.9,5-18.4,5.4-27.7c0.8-20.3,0.6-40.6,0.3-60.8 c-0.2-11.6-0.8-23.3-2.5-34.8c-2.5-16.5-11.2-25.5-28.1-25c-29.8,0.9-59.6,0.2-89.4,0.2c-3,0-5.9,0-9.3,0 C474.1,529.4,474.1,582.1,474.1,635.7z"></path> <path class="st3" d="M37.6,668.8c11.4-24.3,22.2-47.2,33-70.2c5.9-12.5,11.5-25.1,17.7-37.5c2.2-4.4,1.6-7.8-0.5-12 c-16.3-34-32.3-68.2-48.4-102.4c-0.4-0.8-0.4-1.7-0.7-3.5c99.3,0,198.4,0,298,0c0,10,0,20.2,0,31.5c-44.4,0-88.2,0-133.6,0 c1.6,3.4,2.3,5.6,3.5,7.5c15.2,22.7,30.2,45.4,45.7,67.8c3,4.3,2.9,7,0,11.3c-15.1,21.9-29.7,44.2-44.5,66.3 c-1.6,2.4-2.9,5-5.2,8.9c45.7,0,89.5,0,134,0c0,11.2,0,21.4,0,32.4C237.2,668.8,138.1,668.8,37.6,668.8z"></path> <path class="st4" d="M854.2,673.2c-35.1,0-69.7,0-105.2,0c0-76.7,0-153.2,0-230.4c34.9,0,69.8,0,105.2,0 C854.2,519.6,854.2,596.2,854.2,673.2z"></path> <path class="st5" d="M857.7,347.5c0,31.9-25.8,57-58.5,56.9c-33.1,0-57.8-24.5-58-57.2c-0.1-32.3,25.6-59.5,57.3-59.6 C833,287.5,859.7,317.7,857.7,347.5z"></path> <path class="st6" d="M258.5,721.7c4.7-0.6,9.3-1.2,14.5-1.8c3.6,14.8,6.9,28.8,10.3,42.9c0.8,0.1,1.5,0.2,2.3,0.3 c4.2-14,8.4-27.9,12.7-42.2c6.3,0,12,0,18.9,0c3.9,13.5,8,27.7,12.1,41.8c0.8,0.1,1.5,0.3,2.3,0.4c3.5-14.1,7-28.2,10.6-42.3 c5.6,0,10.4,0,16.2,0c-6.3,23.6-12.3,46.5-18.5,69.8c-6.1,0-11.7,0-17.6,0c-4.6-15.8-9.1-31.1-13.6-46.4c-0.8,0-1.5,0-2.3-0.1 c-4.6,15.3-9.3,30.6-14.1,46.4c-5.7,0-11.4,0-18.1,0c-5.2-21.7-10.4-43.8-15.7-65.9C258.5,723.7,258.5,722.7,258.5,721.7z"></path> <path class="st7" d="M48.8,721.2c9.2-2.1,16.2-1.4,21.6,8.3c6.3,11.3,14.6,21.5,23.4,32c2.7-13.3,1.2-26.5,2.1-40.4 c4.7,0,9.4,0,14.5,0c0,23.1,0,46,0,69c-13.7,3.3-15.1,2.7-22.5-8.4c-7.1-10.6-14.2-21.1-23.2-31.2c0,13.2,0,26.4,0,40.2 c-5.7,0-10.4,0-15.9,0C48.8,767.6,48.8,744.5,48.8,721.2z"></path> <path class="st8" d="M682,720.8c5.5,0,9.7,0,14.4,0c0,23.3,0,46.2,0,69.8c-4.9,0-9.9,0-15.5,0c-9.2-13.4-18.7-27.1-28.2-40.9 c-0.6,0.1-1.2,0.2-1.9,0.3c0,13.4,0,26.9,0,40.8c-5.5,0-9.6,0-14.3,0c0-23.1,0-46,0-69c11.1-3.4,13.6-2.6,19.7,6.4 c6.3,9.4,12.6,18.8,19,28.2c1.6,2.4,3.6,4.5,6.7,8.5C682,749.1,682,735.6,682,720.8z"></path> <path class="st9" d="M1496.3,765.1c-7.3,0-11.8,0-17,0c0-4.1,0-7.6,0-11.7c10.7,0,21.2,0,32.5,0c0,8.6,0.2,16.9-0.2,25.1 c-0.1,2-1.8,5-3.5,5.6c-7.3,2.8-14.8,6.1-22.5,6.8c-9.3,0.8-18.8,1.9-27.9-3.1c-14.7-8.1-21.3-24.3-16.9-43.6 c3.1-13.4,17-24.3,32.2-24c8.1,0.2,16.6,0.8,24.3,3.3c6.9,2.3,12.4,7.7,12.7,16.8c-7,2.2-12.8,4-18.9-2.9 c-5.1-5.8-12.4-7.4-20.3-4.4c-7.7,3-13.2,7.7-14,16.4c-0.9,9.7-1.1,19.1,7.9,25.9c7.9,6,21.4,6.3,28.3-0.2 C1494.8,773.3,1494.9,769.6,1496.3,765.1z"></path> <path class="st10" d="M781.2,741.4c-5.7,0.5-10.1,0.9-14.2,1.2c-9.7-11.8-19.7-13.8-31-6.8c-9.4,5.8-12,20.8-5.9,33.3 c4.7,9.5,17.1,13,29.7,8.4c7.2-2.6,7.8-3.7,6-11.7c-5.2-0.3-10.6-0.7-16.5-1.1c0-3.9,0-7.1,0-11.2c11.2,0,22.3,0,34,0 c0,9.1,0,18.3,0,27.6c-15.1,11.6-41.2,14.4-56,5.9c-12.1-7-20-24.7-16.9-38c4.6-19.5,18.9-29.5,33.1-28.6 c8.4,0.5,17.2,0.7,25.1,3.3C775.4,725.8,781,731.3,781.2,741.4z"></path> <path class="st11" d="M520.6,790.9c-8.3,0-14.1,0-19.8,0c-5.6-7.6-10.9-15-16.6-22.2c-5.5-6.9-8.9-7.7-18.3-5.4c0,8.9,0,18,0,27.5 c-5.3,0-9.8,0-15,0c0-23.2,0-46.3,0-71.2c15.5,0.9,31,1,46.4,2.8c10,1.2,15.7,8.4,16.4,16.9c0.6,8-4.8,15.5-13.9,19.3 c-0.8,0.3-1.6,0.8-2.6,1.3C504.7,770,512,779.7,520.6,790.9z M465.9,734.1c0,5.7,0,10.4,0,16c7.9,0,15.6,0.8,22.9-0.4 c3.1-0.5,6.3-5.1,7.7-8.5c0.6-1.4-3.2-6.6-5.3-6.8C482.9,733.7,474.5,734.1,465.9,734.1z"></path> <path class="st7" d="M1585.6,790.8c-20.3,0-39.6,0-59.5,0c0-23.3,0-46.4,0-70c19,0,37.7,0,57,0c0,4,0,7.8,0,12.5 c-13.4,0-26.5,0-40.3,0c0,5,0,9,0,14.1c12.3,0,24.5,0,37.2,0c0,4.8,0,8.6,0,13.4c-12.4,0-24.6,0-37.3,0c0,6.1,0,11.2,0,17.3 c13.8,0,27.4,0,42,0C1585,782.6,1585.2,786.1,1585.6,790.8z"></path> <path class="st12" d="M1725.5,790.9c-5.2,0-9.8,0-15.2,0c0-9.7,0-19.1,0-29.2c-9.9,0-18.9,0-29.3,0c0,9.4,0,19,0,29.1 c-6.1,0-10.9,0-16.3,0c0-23,0-45.9,0-69.7c4.7,0,9.6,0,15.4,0c0,8.3,0,16.5,0,25.5c10,0,19.3,0,29.6,0c0-8.4,0-16.8,0-25.7 c5.8,0,10.5,0,15.7,0C1725.5,744.2,1725.5,767.2,1725.5,790.9z"></path> <path class="st13" d="M143.7,733.4c0,5.5,0,9.3,0,14.1c12.5,0,24.7,0,37.4,0c0,4.8,0,8.6,0,13.4c-12.5,0-24.6,0-37.2,0 c0,6.1,0,11.1,0,17.2c13.9,0,27.6,0,42,0c0,4.5,0,8,0,12.3c-19.3,0-38.8,0-58.7,0c0-22.6,0-45.6,0-69.3c18.6,0,37.4,0,56.9,0 c0,3.6,0,7.4,0,12.3C170.9,733.4,157.9,733.4,143.7,733.4z"></path> <path class="st14" d="M1741.9,720.9c19.1,0,37.7,0,56.7,0c0,4.2,0,8,0,12.7c-13.7,0-26.8,0-40.8,0c-0.2,4.7-0.4,8.5-0.6,13.8 c13.2,0,25.8,0,38.9,0c0,5,0,8.5,0,13.3c-12.7,0-25.1,0-38.2,0c0,6.3,0,11.3,0,17.2c13.7,0,27.3,0,42.1,0 c0.4,4.4,0.8,8.2,1.3,12.8c-20.1,0-39.5,0-59.4,0C1741.9,767.3,1741.9,744.4,1741.9,720.9z"></path> <path class="st8" d="M528.2,720.6c5.5,0,10,0,15.8,0c0,9.5,0,18.7,0,28c0.7,0.2,1.3,0.5,1.9,0.7c6.9-6.7,14.7-12.7,20.4-20.3 c8-10.6,18-9.2,31-8c-10.6,9.6-19.7,17.9-29.6,26.9c10.1,14.2,19.9,28,30.3,42.7c-7.5,0-14,0-21,0c-6.6-10-13.5-20.4-21.6-32.7 c-4.3,5.8-9.1,9.9-10.9,15c-1.7,5.2-0.4,11.4-0.4,17.7c-5.7,0-10.4,0-16,0C528.2,767.7,528.2,744.6,528.2,720.6z"></path> <path class="st15" d="M1247.2,761c-12.5,0-24.7,0-37.3,0c0,6.1,0,11.1,0,17.3c13.6,0,26.9,0,41.3,0c0.3,4.5,0.5,7.9,0.8,12.3 c-19.8,0-38.9,0-58.7,0c0-22.9,0-46,0-69.7c18.7,0,37,0,56.2,0c0,3.8,0,7.9,0,12.8c-13,0-25.7,0-39.3,0c0,4.9,0,8.9,0,13.9 c12.4,0,24.5,0,37.1,0C1247.2,752.2,1247.2,756.1,1247.2,761z"></path> <path class="st16" d="M899.1,790.7c0-23.7,0-46.4,0-69.7c18.9,0,37.5,0,56.6,0c0,3.8,0,7.6,0,12.5c-13.3,0-26.3,0-40.1,0 c0,4.9,0,8.7,0,13.7c12.1,0,24.5,0,37.6,0c0,4.9,0,8.7,0,13.4c-12.5,0-24.6,0-37.5,0c0,6.2,0,11.4,0,17.4c14,0,27.7,0,42.3,0 c0.2,4.5,0.4,8.3,0.6,12.7C938.5,790.7,919,790.7,899.1,790.7z"></path> <path class="st13" d="M400.7,792.4c-16.9,0.6-30-5.6-35.3-21.5c-9.1-27.4,5.2-52,33.7-51c20.4,0.7,32.9,6.8,37.1,23.2 c4.9,19.2,2.1,35.5-16.2,44.9C414.3,791,407.2,791,400.7,792.4z M421,756.2c1-9.6-1.6-17.7-11-22c-10.3-4.8-20.9-1.9-26.6,6.8 c-5.8,8.8-4.6,25.9,2.2,32.5c6.7,6.5,14.5,8,22.7,4.5C418,774,422.1,766.7,421,756.2z"></path> <path class="st12" d="M1393,791.7c-16,1-29-4.3-34.9-19.8c-10.6-28,5.4-53.2,32-51.8c7.8,0.4,16.3,0.8,23,4.2 c14.9,7.7,18.4,21.8,16.9,37.6c-1.3,13.5-8.8,22.7-20.8,27.8C1404.4,791.8,1398.5,791.2,1393,791.7z M1413.5,755.4 c0.7-8.6-1.8-16.7-11.1-21.2c-9.2-4.5-19.7-2.3-25.8,5.2c-5.8,7-6.4,24.2-1.1,31.3c5.9,8,14.8,11,23.4,8.1 C1409.6,775.1,1413.5,769,1413.5,755.4z"></path> <path class="st7" d="M1005,792c-11.8,0.4-22-2.6-29.5-12.1c-10.2-12.9-10-27.5-4-41.6c5.7-13.4,17.5-18.4,32.1-18.4 c12.1,0,22.9,2,31.4,11.7c15.8,18.1,9.3,48.7-13,57.7C1016.8,791.4,1010.7,791.2,1005,792z M1026.3,755.8c0.4-9.2-2-17.1-11-21.5 c-9.5-4.7-20.1-2.4-26.5,5.4c-5.7,7-5.9,24.1-0.4,31.2c6.4,8.1,14.8,10.9,23.5,7.8C1022.2,775.1,1026.3,768.4,1026.3,755.8z"></path> <path class="st12" d="M843.8,764.3c0,9.6,0,17.9,0,26.5c-5.7,0-10.7,0-16.2,0c0-23.4,0-46.3,0-71.1c14.4,0.8,28.6,1.6,42.8,2.4 c10.3,0.5,18,14.3,17,21.9c-1.5,11.9-10.3,20.1-22.3,20.3C858.4,764.4,851.7,764.3,843.8,764.3z M844.2,753.5c7.2-0.9,13.9-1,20-3 c2.8-0.9,6.1-6,5.7-8.8c-0.4-2.9-4.6-6.8-7.7-7.5c-5.7-1.2-11.8-0.3-18-0.3C844.2,740.8,844.2,746.4,844.2,753.5z"></path> <path class="st17" d="M1071,791c-5.9,0-10.5,0-15.7,0c0-23.4,0-46.5,0-71.3c14.7,0.9,29.1,0.9,43.2,2.9 c11.9,1.7,16.5,9.8,15.6,22.9c-0.7,9.7-9,17.8-19.4,18.5c-4,0.3-8,0.1-12,0.1c-3.7,0-7.3,0-11.7,0C1071,773.2,1071,781.6,1071,791 z M1070.9,753.8c7.7-1.2,14.8-1.9,21.7-3.5c4.6-1.1,6.2-5.7,4.7-9.5c-1.1-2.8-4.6-6-7.4-6.5c-6.1-1-12.5-0.3-19-0.3 C1070.9,740.6,1070.9,746.2,1070.9,753.8z"></path> <path class="st18" d="M258.5,721.7c0,1-0.1,2-0.1,3c-1.8,2.4-3.5,4.9-6.4,8.9c-4.9,0-11.8,0-19.9,0c0,19.5,0,38,0,57.1 c-5.9,0-10.7,0-16.3,0c0-18.4,0-36.9,0-56.5c-7.8,0-14.6,0-22.4,0c-0.4-4.8-0.7-8.6-1-12.5C215.1,721.7,236.8,721.7,258.5,721.7z"></path> <path class="st0" d="M1328.1,790.8c-6.3,0-10.8,0-16.4,0c0-18.9,0-37.5,0-57c-7.9,0-14.9,0-22.7,0c-0.2-4.7-0.4-8.5-0.7-12.9 c21.2,0,41.6,0,62.4,0c0,3.9,0,7.5,0,12.4c-7.3,0-14.4,0-22.6,0C1328.1,753.1,1328.1,771.6,1328.1,790.8z"></path> <path class="st19" d="M1632,790.8c-6.2,0-11,0-16.8,0c0-18.9,0-37.4,0-57c-7.6,0-14.2,0-21.7,0c-0.3-4.7-0.4-8.5-0.7-13 c20.6,0,40.3,0,60.3,0c0,4.2,0,8,0,12.7c-7.2,0-13.8,0-21.1,0C1632,753,1632,771.5,1632,790.8z"></path> <path class="st0" d="M1127.9,721.7c5.1,0,9.9,0,15.8,0c0,18.5,0,37,0,56.3c12.9,0,24.7,0,37.5,0c0.4,4.4,0.7,8.2,1,12.6 c-18.4,0-36,0-54.3,0C1127.9,767.9,1127.9,745.1,1127.9,721.7z"></path> <path class="st20" d="M605.5,720.9c5,0,9.7,0,14.9,0c0,23.4,0,46.3,0,69.7c-4.8,0-9.5,0-14.9,0 C605.5,767.5,605.5,744.5,605.5,720.9z"></path> </g> </g> </svg> 