<?xml version="1.0" encoding="UTF-8"?> <svg xmlns="http://www.w3.org/2000/svg" xmlns:xlink="http://www.w3.org/1999/xlink" version="1.1" id="Layer_1" x="0px" y="0px" viewBox="0 0 1920 1080" style="enable-background:new 0 0 1920 1080;" xml:space="preserve"> <style type="text/css"> .st0{fill:#F50514;} </style> <g> <path class="st0" d="M242.5,394.9v40.2H78v276.4h278.1V547.4h39.3v203.3H38.7V394.9H242.5z M395.3,329.2v65.7h65.8v40.2h-65.8v65.7 h-39.3v-65.7h-66.9v-40.2h66.9v-65.7H395.3z M202.2,658.6V547.4H165v-28.6h4.3c11.7,0,21.2-2.1,27.6-7.4 c6.4-5.3,10.6-14.8,10.6-26.5h35v173.7H202.2z M507.9,573.9c0-62.5,39.3-109.1,100.8-109.1c61.6,0,100.8,46.6,100.8,109.1 c0,62.5-39.3,108-100.8,108C547.1,681.9,507.9,636.4,507.9,573.9L507.9,573.9z M666,573.9c0-41.3-19.1-74.2-57.3-74.2 c-38.2,0-58.4,32.9-58.4,74.2s19.1,74.1,58.4,74.1C647.9,647,666,615.2,666,573.9L666,573.9z M745.6,469h43.5l70,116.5 c6.4,11.7,14.9,29.7,14.9,29.7h1.1c0,0-1.1-21.2-1.1-36V469h41.4v208.6H874l-72.2-115.4c-6.4-10.6-14.9-28.6-14.9-28.6h-1.1 c0,0,1.1,22.2,1.1,36v108h-41.4L745.6,469z M962.1,469H1116V504h-111.5v46.6h97.7v34.9h-97.7v56.1h112.5v36h-155L962.1,469z M1250.8,469c24.4,0,42.5,7.4,55.2,19.1c11.7,11.6,19.1,28.6,19.1,47.7c0,39.2-26.5,65.7-70.1,65.7h-50.9v75.2h-43.5V469H1250.8z M1202,567.5h43.5c22.3,0,34-12.7,34-30.7c0-19.1-12.7-30.7-32.9-30.7H1202V567.5z M1354.8,469h42.5v172.6h97.6v36h-140.1V469z M1518.3,469h42.5V611c0,21.2,10.6,37.1,39.3,37.1c26.5,0,39.3-15.9,39.3-37.1V469h42.5V611c0,44.5-27.6,71-80.7,71 c-55.2-1.1-82.8-26.5-82.8-72L1518.3,469z M1752.8,613.1c3.2,25.4,17,34.9,46.7,34.9c21.2,0,40.3-7.4,40.3-26.5 c0-20.1-20.2-24.4-52-31.8c-37.1-8.5-72.2-18-72.2-61.4c0-41.3,34-62.5,79.6-62.5c46.7,0,77.5,23.3,80.7,64.6h-40.3 c-2.1-21.2-19.1-31.8-40.3-31.8c-22.3,0-38.2,9.5-38.2,24.4c0,16.9,14.9,22.2,45.6,28.6c43.5,9.5,78.6,19.1,78.6,64.6 c0,42.4-34,65.7-81.7,65.7c-55.2,0-87-25.4-88.1-68.8H1752.8z"></path> </g> </svg> 