<?xml version="1.0" encoding="UTF-8"?> <svg xmlns="http://www.w3.org/2000/svg" xmlns:xlink="http://www.w3.org/1999/xlink" version="1.1" id="Layer_1" x="0px" y="0px" viewBox="0 0 1920 1080" style="enable-background:new 0 0 1920 1080;" xml:space="preserve"> <style type="text/css"> .st0{fill:#D30606;} .st1{fill:#070707;} .st2{fill:#050505;} .st3{fill:#060606;} .st4{fill:#DE3E3F;} .st5{fill:#8D8D8D;} </style> <g> <g> <path class="st0" d="M752.7,658.3c27.2-62.1,66.8-115,118.7-159c53.1-45,113.9-72.8,182.5-85.1c33.2-5.9,66.3-6.4,99.7-4.8 c3,0.1,6,0.9,10.6,1.5c-7,9.6-13.2,18.2-19.5,26.8c-37.5,51-75.1,102-112.5,153.2c-3.3,4.6-6.7,6.8-12.6,6.6 c-14.5-0.5-29.1-0.2-45.6-0.2c10.5-15.1,20.2-29.1,30.6-44.1c-32.3,0-63.4,0-96.4,0c9.9-10.7,18.4-20,27.3-29 c1.6-1.6,5.2-1.9,7.8-1.9c25.7-0.1,51.3,0,77-0.2c3.1,0,7.4-0.8,9-2.9c13.3-18,26.1-36.4,40.7-56.9c-10,0.9-17.7,1.2-25.2,2.4 c-95.1,14.7-173.3,60-237.1,130.6c-18,19.9-33.4,42.2-50,63.4C755.9,658.5,754.3,658.4,752.7,658.3z"></path> <path class="st1" d="M1534.1,552.5c-67.6,0-134.8,0-203.3,0c12-16.9,23.4-33,34.9-49c13.9-19.4,27.7-38.8,42-57.9 c2.2-2.9,6.6-5.7,10-5.7c62.1-0.3,124.3-0.3,186.4-0.2c1.9,0,3.8,0.4,6.7,0.8c-6.6,9.3-12.3,18.1-18.8,26.1c-1.6,2-5.9,2.7-9,2.7 c-46.2,0.2-92.4,0.4-138.5-0.1c-8.7-0.1-13,3.4-16.2,11.6c39.5,0,78.3,0,118.9,0c-8,11.2-15,21-22,30.8c-37,0-73.8,0.2-110.5-0.2 c-8-0.1-12.8,2.5-15.6,10.7c51.9,0,103.5,0,157.2,0C1548,533.4,1540.9,543.1,1534.1,552.5z"></path> <path class="st2" d="M74.3,551.5c10.1-13.9,19.2-26.5,28.3-39c16.3-22.5,32.6-45.1,49.2-67.4c1.9-2.5,5.8-5,8.7-5 c42.5-0.2,85-0.3,127.5,0.3c14.9,0.2,29.3,3.7,41.5,13.2c16.7,13.1,18.7,32.5,5.5,49.2c-22.2,28.3-51.9,42.4-86.9,46.5 c-12.7,1.5-25.6,1.9-38.3,2c-41.6,0.2-83.3,0.1-124.9,0.1C81.9,551.5,78.9,551.5,74.3,551.5z M146.5,522c31.9,0,61.5,0.4,91.1-0.2 c18.1-0.3,34.8-5.5,47.8-19.1c5.6-5.8,11.8-11.8,9.1-20.6c-2.9-9.6-12.5-10.6-20.4-10.9c-28.4-1.2-56.9-1.4-85.4-1.8 c-1.8,0-4.4,0.6-5.3,1.8C171.4,487.5,159.5,504.1,146.5,522z"></path> <path class="st1" d="M1671,495.7c17.8,0,33.1,0.1,48.4,0c18.3-0.1,36.5,0.4,54.7-0.9c6.4-0.5,13.5-4.3,18.4-8.7 c6.2-5.6,3.9-11.4-4.3-13.5c-3.6-0.9-7.3-1.4-10.9-1.4c-33.7-0.1-67.3-0.3-100.9,0.2c-3.7,0-8.4,3-10.8,6.1 c-17.9,23.5-35.4,47.3-53.1,71c-1.4,1.8-3.7,4.2-5.6,4.3c-13,0.4-26,0.2-40.5,0.2c14.2-19.2,27.3-37.2,40.6-55.1 c12.9-17.3,25.9-34.5,38.6-52c3.2-4.4,6.6-6,12.1-6c42.5,0.2,85-0.3,127.5,0.4c13.2,0.2,26.9,1.8,39.4,5.8 c21.2,6.8,26.7,24,15.4,43.3c-12.2,20.8-32.5,28.1-54.8,31.3c-9,1.3-18.1,1.5-28.8,2.4c11.8,10,23.1,19.4,35.7,30 c-19,0-36.3,0.1-53.6-0.1c-1.8,0-3.8-1.1-5.2-2.3C1713.2,532.9,1693.1,515.2,1671,495.7z"></path> <path class="st1" d="M565.6,552.8c27.8-37.4,54.6-73.6,81.7-109.7c1.4-1.9,4.7-3.2,7.1-3.2c47.9,0,95.8-0.3,143.7,0.6 c10.2,0.2,20.9,3.2,30.4,7.3c15,6.4,19.5,19.4,13.8,34.5c-8.3,22.1-26.6,31.7-48.1,36.2c-12,2.5-24.5,3.2-38.1,4.8 c11.7,9.8,22.6,19.1,34.9,29.4c-18.7,0-36.2,0-53.6-0.1c-1.5,0-3.2-1-4.4-2.1c-20.4-17.7-40.7-35.5-62.3-54.3 c3.5-0.3,5.5-0.6,7.5-0.6c31.4-0.2,62.8,0.2,94.1-0.9c6.8-0.2,14.5-4.6,20-9.2c5.9-5.1,3.4-11.1-4.4-12.9c-4.4-1-9-1.5-13.5-1.5 c-32.5-0.1-65,0-97.5-0.2c-5.4,0-8.7,1.6-12,6c-17,23.5-34.3,46.6-51.4,70c-3.1,4.2-6.3,6.4-11.9,6.1 C590.2,552.5,578.7,552.8,565.6,552.8z"></path> <path class="st3" d="M1303,479.7c1.6-3.6,2.8-6.3,4.4-10c-22.6,0-44.1,0-65.7,0c-8.6,0-17.1-0.2-25.6,0.3 c-10.2,0.7-18.4,5.3-24.4,13.7c-6,8.6-12.4,16.9-18.1,25.7c-1.6,2.5-2.6,7-1.4,9.3c1.1,2.2,5.5,3.8,8.4,3.8 c28.5,0.3,57,0.4,85.5-0.1c3.1,0,6.2-3.7,9.3-5.7c2.7-1.7,5.3-4.8,8-4.8c15.1-0.5,30.2-0.2,45.4-0.2c-7.7,22.4-32.8,40.7-58.7,41 c-44.2,0.6-88.4,0.4-132.5,0c-6,0-12.3-2.4-17.7-5.1c-12.4-6.3-14.1-15.5-5.9-27c12.7-17.8,25.7-35.4,37.9-53.5 c11.8-17.6,29.1-26.1,49-26.5c50.4-1.1,100.9-0.5,151.3-0.3c3.6,0,7.4,1.1,10.7,2.5c7.4,3.2,9.4,9.2,5.3,16 c-3.8,6.3-8.3,12.2-12.8,18c-1.1,1.4-3.2,2.7-4.8,2.8C1334.9,479.8,1319.3,479.7,1303,479.7z"></path> <path class="st1" d="M610.2,442.1c-39.1,18.3-78.1,36.5-118.6,55.4c16.8,18.7,32.6,36.3,49.8,55.5c-19.8,0-37.9,0.1-55.9-0.2 c-2,0-4.4-2.3-6-4.1c-9.8-10.3-19.4-20.8-29.5-31.7c-22.6,10.5-44.8,21.1-67.4,31c-6,2.6-12.9,4.3-19.5,4.5 c-20.8,0.6-41.6,0.2-62.8-1C342.2,532,384,512.3,427,492.1c-16.3-17.3-32-34-49.2-52.2c21,0,40.1-0.2,59.1,0.2 c2.3,0,4.9,2.6,6.7,4.5c8.3,8.9,16.4,18,25.1,27.6c20.1-9.4,39.8-19,59.8-27.8c6-2.6,13-4.2,19.5-4.3c20.8-0.5,41.6-0.1,62.4-0.1 C610.3,440.7,610.3,441.4,610.2,442.1z"></path> <path class="st4" d="M752.7,658.3c1.6,0.1,3.2,0.2,4.9,0.3c-2.5,4.3-5.1,8.5-7.7,12.8c-1-0.6-2.1-1.1-3.1-1.7 C748.7,665.9,750.7,662.1,752.7,658.3z"></path> <path class="st5" d="M610.2,442.1c0-0.7,0.1-1.5,0.1-2.2c1,0.2,1.9,0.3,2.9,0.5C612.3,441,611.2,441.6,610.2,442.1z"></path> </g> </g> </svg> 